# xmcd CD database file
#
# Track frame offsets:
#	150
#	22456
#	40762
#	64842
#	85963
#	108286
#	134500
#	156892
#	174034
#	195413
#	213190
#	236340
#	255153
#
# Disc length: 3602 seconds
#
# Revision: 0
# Processed by: cddbd v1.5.2PL0 Copyright (c) Steve Scherf et al.
# Submitted via: CDex 1.70beta2
#
DISCID=a30e100d
DTITLE=Till Br￶nner - The Good Life
DYEAR=2016
DGENRE=Jazz
TTITLE0=The Good Life
TTITLE1=Sweet Lorraine
TTITLE2=For All We Know
TTITLE3=Come Dance with Me
TTITLE4=Change Partners
TTITLE5=Love is Here to Stay
TTITLE6=I Loves You Porgy
TTITLE7=I May be Wrong
TTITLE8=O Que Resta
TTITLE9=I'm Confessin' that I Love You
TTITLE10=I'll be Seeing You
TTITLE11=Her Smile
TTITLE12=In the Wee Small Hours of the Morning
EXTD=YEAR: 2016
EXTT0=
EXTT1=
EXTT2=
EXTT3=
EXTT4=
EXTT5=
EXTT6=
EXTT7=
EXTT8=
EXTT9=
EXTT10=
EXTT11=
EXTT12=
PLAYORDER=
